<svg width="56" height="56" viewBox="0 0 56 56" fill="none" xmlns="http://www.w3.org/2000/svg">
<path d="M31.1111 9.39867C31.1111 11.1284 29.7065 12.5316 28 12.5316C26.2936 12.5316 24.8889 11.1284 24.8889 9.39867V3.13289C24.8889 1.40156 26.2936 0 28 0C29.7065 0 31.1111 1.40156 31.1111 3.13289V9.39867Z" fill="#FFCC4D"/>
<path d="M14.28 56C13.9316 56 13.5769 55.9191 13.244 55.7527C12.0991 55.1709 11.634 53.7616 12.2065 52.5996L26.1131 24.402C26.5051 23.6056 27.3078 23.1031 28.1867 23.1031C29.0656 23.1031 29.8682 23.6056 30.2602 24.402L44.1685 52.5996C44.7409 53.7616 44.2774 55.1709 43.1325 55.7527C41.9876 56.3313 40.5954 55.8616 40.0229 54.7011L28.1882 30.7067L16.3551 54.7011C15.9476 55.524 15.1294 56 14.28 56Z" fill="#FFAC33"/>
<path d="M28.1882 31.7209C27.7791 31.7209 27.3855 31.556 27.0962 31.262L5.4631 9.33023C4.85955 8.71734 4.85955 7.72645 5.4631 7.11512C6.06666 6.50378 7.0451 6.50378 7.6471 7.11512L28.1882 27.9378L48.7262 7.11356C49.3313 6.50223 50.3082 6.50223 50.9118 7.11356C51.5153 7.72645 51.5153 8.71734 50.9118 9.32867L29.2818 31.262C28.9909 31.5544 28.5989 31.7209 28.1882 31.7209V31.7209Z" fill="#58595B"/>
<path d="M52.9123 30.1545C52.9123 43.9958 41.8445 55.216 28.1883 55.216C14.5352 55.216 3.46582 43.9958 3.46582 30.1545C3.46582 16.31 14.5352 5.08978 28.1883 5.08978C41.8429 5.08823 52.9123 16.31 52.9123 30.1545Z" fill="#DD2E44"/>
<path d="M46.7305 30.1544C46.7305 40.5362 38.4316 48.9518 28.1883 48.9518C17.948 48.9518 9.64758 40.5362 9.64758 30.1544C9.64758 19.7711 17.948 11.3556 28.1883 11.3556C38.4316 11.354 46.7305 19.7711 46.7305 30.1544V30.1544Z" fill="#E6E7E8"/>
<path d="M46.7289 1.95532C44.1684 1.95532 41.8522 3.00688 40.1738 4.70866L53.2856 17.9993C54.9624 16.2991 56 13.9502 56 11.354C56 6.16466 51.8482 1.95532 46.7289 1.95532V1.95532ZM9.27111 1.95532C11.83 1.95532 14.1478 3.00688 15.8262 4.70866L2.71444 17.9993C1.03756 16.2991 0 13.9502 0 11.354C0 6.16466 4.15022 1.95532 9.27111 1.95532V1.95532Z" fill="#FFCC4D"/>
<path d="M35.7778 31.1111H28C27.1413 31.1111 26.4445 30.4158 26.4445 29.5556V15.5556C26.4445 14.6969 27.1413 14 28 14C28.8587 14 29.5556 14.6969 29.5556 15.5556V28H35.7778C36.638 28 37.3333 28.6969 37.3333 29.5556C37.3333 30.4158 36.638 31.1111 35.7778 31.1111Z" fill="#414042"/>
</svg>
