<svg width="56" height="56" viewBox="0 0 56 56" fill="none" xmlns="http://www.w3.org/2000/svg">
<path d="M56 49.7778C56 53.214 53.214 56 49.7778 56H6.22222C2.786 56 0 53.214 0 49.7778V14C0 10.5638 2.786 7.77777 6.22222 7.77777H49.7778C53.214 7.77777 56 10.5638 56 14V49.7778Z" fill="#E0E7EC"/>
<path d="M52.8889 0H47.7913C48.0589 0.458889 48.2222 0.986222 48.2222 1.55556C48.2222 3.27289 46.8284 4.66667 45.1111 4.66667C43.3938 4.66667 42 3.27289 42 1.55556C42 0.986222 42.1633 0.458889 42.4309 0H13.5691C13.8367 0.458889 14 0.986222 14 1.55556C14 3.27289 12.6062 4.66667 10.8889 4.66667C9.17156 4.66667 7.77778 3.27289 7.77778 1.55556C7.77778 0.986222 7.94111 0.458889 8.20867 0H3.11111C1.39378 0 0 1.39378 0 3.11111V20.2222H56V3.11111C56 1.39378 54.6062 0 52.8889 0Z" fill="#DD2F45"/>
<path d="M36.848 29.5556H36.0702C34.3825 29.5556 33.6778 28.4184 33.6778 27.2222C33.6778 25.9902 34.5567 24.8889 36.0702 24.8889H39.2047C40.7167 24.8889 41.5613 25.9793 41.5613 27.3856V47.3978C41.5613 49.1556 40.6933 50.1402 39.1813 50.1402C37.6693 50.1402 36.848 49.1556 36.848 47.3978V29.5556Z" fill="#66757F"/>
<path d="M51.3333 17.1111C52.1924 17.1111 52.8889 16.4147 52.8889 15.5556C52.8889 14.6964 52.1924 14 51.3333 14C50.4742 14 49.7778 14.6964 49.7778 15.5556C49.7778 16.4147 50.4742 17.1111 51.3333 17.1111Z" fill="#F3AAB9"/>
<path d="M51.3333 12.4445C52.1924 12.4445 52.8889 11.748 52.8889 10.8889C52.8889 10.0298 52.1924 9.33334 51.3333 9.33334C50.4742 9.33334 49.7778 10.0298 49.7778 10.8889C49.7778 11.748 50.4742 12.4445 51.3333 12.4445Z" fill="#F3AAB9"/>
<path d="M46.6667 17.1111C47.5258 17.1111 48.2223 16.4147 48.2223 15.5556C48.2223 14.6964 47.5258 14 46.6667 14C45.8076 14 45.1111 14.6964 45.1111 15.5556C45.1111 16.4147 45.8076 17.1111 46.6667 17.1111Z" fill="#F3AAB9"/>
<path d="M46.6667 12.4445C47.5258 12.4445 48.2223 11.748 48.2223 10.8889C48.2223 10.0298 47.5258 9.33334 46.6667 9.33334C45.8076 9.33334 45.1111 10.0298 45.1111 10.8889C45.1111 11.748 45.8076 12.4445 46.6667 12.4445Z" fill="#F3AAB9"/>
<path d="M42 17.1111C42.8591 17.1111 43.5556 16.4147 43.5556 15.5556C43.5556 14.6964 42.8591 14 42 14C41.1409 14 40.4445 14.6964 40.4445 15.5556C40.4445 16.4147 41.1409 17.1111 42 17.1111Z" fill="#F3AAB9"/>
<path d="M42 12.4445C42.8591 12.4445 43.5556 11.748 43.5556 10.8889C43.5556 10.0298 42.8591 9.33334 42 9.33334C41.1409 9.33334 40.4445 10.0298 40.4445 10.8889C40.4445 11.748 41.1409 12.4445 42 12.4445Z" fill="#F3AAB9"/>
<path d="M3.83911 7.68443C3.83911 7.00465 4.37733 6.46643 5.05711 6.46643H5.32622C5.84733 6.46643 6.21133 6.73554 6.43222 7.09799L9.37378 11.8891L12.3293 7.08399C12.5813 6.67332 12.9298 6.46799 13.4198 6.46799H13.6873C14.3671 6.46799 14.9053 7.00621 14.9053 7.68599V16.4749C14.9053 17.1547 14.3671 17.6929 13.6873 17.6929C13.0231 17.6929 12.4864 17.1391 12.4864 16.4749V10.9573L10.3522 14.2458C10.1002 14.6238 9.78445 14.8618 9.34111 14.8618C8.89778 14.8618 8.582 14.6253 8.33 14.2458L6.22689 11.004V16.506C6.22689 17.1702 5.68867 17.6913 5.026 17.6913C4.36333 17.6913 3.84067 17.1702 3.84067 16.506V7.68443H3.83911ZM16.1638 16.0315L20.02 7.32043C20.2891 6.71999 20.7791 6.35599 21.4433 6.35599H21.5849C22.2491 6.35599 22.7236 6.71999 22.9927 7.32043L26.8489 16.0315C26.9282 16.2042 26.9749 16.3629 26.9749 16.5215C26.9749 17.1702 26.4693 17.6913 25.8207 17.6913C25.2513 17.6913 24.8718 17.36 24.6509 16.8529L23.9089 15.1138H19.04L18.2653 16.9322C18.06 17.4067 17.6493 17.6913 17.1422 17.6913C16.5091 17.6913 16.0191 17.1858 16.0191 16.5527C16.0207 16.3784 16.0844 16.2042 16.1638 16.0315V16.0315ZM23.0082 12.964L21.476 9.31154L19.9422 12.964H23.0082ZM28.1058 7.74821C28.1058 7.06843 28.644 6.53021 29.3238 6.53021H33.166C34.5722 6.53021 35.6627 6.92532 36.3891 7.65332C37.0051 8.26932 37.338 9.13888 37.338 10.1827V10.2153C37.338 11.9544 36.4684 13.0293 35.1244 13.5831L36.8153 15.638C37.0533 15.9382 37.212 16.1918 37.212 16.5713C37.212 17.2511 36.6427 17.6944 36.0578 17.6944C35.5056 17.6944 35.14 17.4253 34.8569 17.0613L32.4862 14.0575H30.5418V16.4764C30.5418 17.1562 30.0036 17.6944 29.3253 17.6944C28.6456 17.6944 28.1073 17.1562 28.1073 16.4764V7.74821H28.1058ZM33.0073 11.9062C34.1927 11.9062 34.8724 11.2731 34.8724 10.3413V10.3087C34.8724 9.26643 34.1444 8.72821 32.9591 8.72821H30.5402V11.9062H33.0073Z" fill="white"/>
<path d="M13.6873 44.814L20.7526 39.0258C23.842 36.5058 25.0491 35.1198 25.0491 33.0602C25.0491 30.9664 23.6646 29.8293 21.7124 29.8293C20.1506 29.8293 19.0493 30.5044 17.6649 31.9947C17.3102 32.3851 16.6709 32.7771 15.8184 32.7771C14.434 32.7771 13.3326 31.6758 13.3326 30.2913C13.3326 29.6878 13.5815 29.0484 13.972 28.5864C15.96 26.278 18.3042 24.9293 22.0671 24.9293C27.216 24.9293 30.6242 27.9471 30.6242 32.5982V32.6698C30.6242 36.8231 28.4946 38.8827 24.0909 42.2909L20.0433 45.416H28.7062C30.0206 45.416 31.0862 46.4815 31.0862 47.7944C31.0862 49.1073 30.0206 50.1387 28.7062 50.1387H15.2149C13.51 50.1387 12.2671 49.1804 12.2671 47.5471C12.2671 46.4815 12.7649 45.5591 13.6873 44.814V44.814Z" fill="#66757F"/>
</svg>
