<svg width="66" height="57" viewBox="0 0 66 57" fill="none" xmlns="http://www.w3.org/2000/svg">
<path d="M5.82353 33.4138V35.3793H9.70588V33.4138C9.70588 32.5372 9.88059 31.7097 10.1426 30.9215C5.39453 29.4336 1.94312 24.9503 1.94312 19.6532C1.94312 13.1395 7.15906 7.8601 13.5902 7.8601C16.7019 7.8601 19.5205 9.10231 21.6092 11.115C22.8263 4.7821 28.3315 0 34.9412 0C42.4458 0 48.5294 6.15993 48.5294 13.7586C48.5294 18.7727 45.8719 23.1479 41.9119 25.5517H42.7059C46.9939 25.5517 50.4706 29.072 50.4706 33.4138H52.4118L64.0588 25.5517H66V53.069H64.0588L52.4118 45.2069H50.4706V49.1379C50.4706 53.4798 46.9939 57 42.7059 57H17.4706C13.1825 57 9.70588 53.4798 9.70588 49.1379V43.2414H5.82353V45.2069H1.90735e-06V33.4138H5.82353Z" fill="#31373D"/>
<path d="M25.2353 13.7586C25.2353 19.1854 29.5816 23.5862 34.9412 23.5862C40.3008 23.5862 44.647 19.1854 44.647 13.7586C44.647 8.33182 40.3008 3.93103 34.9412 3.93103C29.5816 3.93103 25.2353 8.32986 25.2353 13.7586Z" fill="#66757F"/>
<path d="M34.9412 17.6897C32.797 17.6897 31.0588 15.9297 31.0588 13.7587C31.0588 11.5876 32.797 9.82764 34.9412 9.82764C37.0853 9.82764 38.8235 11.5876 38.8235 13.7587C38.8235 15.9297 37.0853 17.6897 34.9412 17.6897Z" fill="#CCD6DD"/>
<path d="M13.5902 27.5172C9.30185 27.5172 5.82548 23.9973 5.82548 19.6552C5.82548 15.3131 9.30185 11.7931 13.5902 11.7931C17.8785 11.7931 21.3549 15.3131 21.3549 19.6552C21.3549 23.9973 17.8785 27.5172 13.5902 27.5172Z" fill="#66757F"/>
<path d="M13.5902 23.5862C11.446 23.5862 9.70783 21.8262 9.70783 19.6552C9.70783 17.4841 11.446 15.7241 13.5902 15.7241C15.7343 15.7241 17.4725 17.4841 17.4725 19.6552C17.4725 21.8262 15.7343 23.5862 13.5902 23.5862Z" fill="#CCD6DD"/>
<path d="M34.9412 31.4482H15.5294V51.1034H34.9412V31.4482Z" fill="#8899A6"/>
<path d="M31.0588 35.3793H19.4118V47.1724H31.0588V35.3793Z" fill="#31373D"/>
<path d="M42.7078 51.1034C40.5637 51.1034 38.8255 49.3434 38.8255 47.1724C38.8255 45.0013 40.5637 43.2413 42.7078 43.2413C44.852 43.2413 46.5902 45.0013 46.5902 47.1724C46.5902 49.3434 44.852 51.1034 42.7078 51.1034Z" fill="#8899A6"/>
</svg>
