<svg width="57" height="57" viewBox="0 0 57 57" fill="none" xmlns="http://www.w3.org/2000/svg">
<path d="M34.8333 0L28.5 12.711L20.5833 4.76583V15.8872L4.75 12.711L17.4167 25.422L0 34.9537H19L9.5 54.0202L28.5 41.3092L45.9167 57.1979L41.1667 34.9537H57L44.3333 25.4204L57 11.1213L38 15.8872L34.8333 0Z" fill="#BB1A34"/>
<path d="M36.2805 20.463L39.2255 19.7236L47.5 17.6478L42.1468 23.6898L40.0583 26.049L42.5758 27.9411L47.2071 31.4276H37.8369L38.5858 34.9394L41.0416 46.4344L31.787 37.9921L30.115 36.4658L28.234 37.7245L19.9373 43.2757L23.7468 35.6313L25.84 31.4276H15.143L21.0948 28.1675L24.491 26.3118L21.7566 23.5648L16.9369 18.7308L22.0368 19.7537L25.498 20.4488V13.7528L27.7938 16.0566L30.6343 18.905L32.4283 15.3013L34.4438 11.2543" fill="#FCAB40"/>
<path d="M34.0607 22.6432L35.2751 22.3377L38.6919 21.4811L36.4816 23.9764L35.6187 24.9502L36.6573 25.7307L38.57 27.17H34.7019L35.0107 28.6203L36.0256 33.3656L32.205 29.8807L31.5131 29.2505L30.7372 29.7698L27.3125 32.0625L28.8847 28.9053L29.7492 27.17H25.3333L27.7922 25.8242L29.1935 25.0578L28.0646 23.9242L26.0743 21.9276L28.1786 22.3503L29.6083 22.6369V19.874L30.5567 20.824L31.7284 22.0004L32.4694 20.5137L33.3007 18.8417" fill="#F5F8FA"/>
</svg>
