<svg width="73" height="73" viewBox="0 0 73 73" fill="none" xmlns="http://www.w3.org/2000/svg">
<path d="M72.6857 64.8889C72.6857 69.35 69.0357 73 64.5746 73H11.8524C7.39126 73 3.74126 69.35 3.74126 64.8889V38.5278C3.74126 34.0667 7.39126 30.4167 11.8524 30.4167H64.5746C69.0357 30.4167 72.6857 34.0667 72.6857 38.5278V64.8889Z" fill="#4A88C1"/>
<path d="M3.74126 30.4167H72.6857V42.5833H3.74126V30.4167Z" fill="#3F7123"/>
<path d="M3.74126 30.4167H72.6857V44.6111H3.74126V30.4167Z" fill="#CCD6DD"/>
<path d="M3.74126 30.4167H11.8524L3.74126 44.6111V30.4167V30.4167ZM26.0468 30.4167L17.9357 44.6111H32.1301L40.2413 30.4167H26.0468V30.4167ZM54.4357 30.4167L46.3246 44.6111H60.519L68.6301 30.4167H54.4357Z" fill="#292F33"/>
<path d="M0.314301 16.642L67.2168 0L70.6437 13.7727L3.74124 30.4167L0.314301 16.642Z" fill="#CCD6DD"/>
<path d="M0.314301 16.642L11.6131 28.4578L3.74124 30.4167L0.314301 16.642ZM39.1625 21.606L27.8637 9.78809L14.089 13.215L25.3878 25.0329L39.1625 21.606V21.606ZM66.7118 14.7521L55.4131 2.9342L41.6384 6.36115L52.9372 18.177L66.7118 14.7521V14.7521Z" fill="#292F33"/>
</svg>

