<svg width="56" height="56" viewBox="0 0 56 56" fill="none" xmlns="http://www.w3.org/2000/svg">
<path d="M56 28C56 43.4638 43.4638 56 28 56C12.5378 56 0 43.4638 0 28C0 12.5378 12.5378 0 28 0C43.4638 0 56 12.5378 56 28Z" fill="#FFCB4C"/>
<path d="M18.9404 28.6471C21.2145 28.6471 23.058 26.0661 23.058 22.8822C23.058 19.6984 21.2145 17.1173 18.9404 17.1173C16.6664 17.1173 14.8229 19.6984 14.8229 22.8822C14.8229 26.0661 16.6664 28.6471 18.9404 28.6471Z" fill="#65471B"/>
<path d="M38.7053 32.9405C44.6177 32.9405 49.4107 28.1475 49.4107 22.2351C49.4107 16.3227 44.6177 11.5298 38.7053 11.5298C32.7929 11.5298 28 16.3227 28 22.2351C28 28.1475 32.7929 32.9405 38.7053 32.9405Z" fill="#F4F7F9"/>
<path d="M23.0611 15.4715C22.5602 15.4715 22.0655 15.2444 21.742 14.8135C20.2004 12.7587 18.5873 11.6573 16.9462 11.5407C14.784 11.3929 13.0215 13.0138 12.6933 13.342C12.0493 13.986 11.0071 13.986 10.3647 13.342C9.72065 12.698 9.72065 11.6558 10.3647 11.0133C11.0755 10.3024 13.6764 8.00176 17.1795 8.25532C19.8162 8.44199 22.2367 9.98354 24.3771 12.8364C24.9231 13.5644 24.7753 14.5973 24.0489 15.1418C23.7502 15.3642 23.4033 15.4715 23.0611 15.4715Z" fill="#65471B"/>
<path d="M51.0596 56C50.1496 56 49.4122 55.2627 49.4122 54.3527V23.0596C49.4122 22.1496 50.1496 21.4122 51.0596 21.4122C51.9696 21.4122 52.7069 22.1496 52.7069 23.0596V54.3542C52.7053 55.2627 51.9696 56 51.0596 56Z" fill="#292F33"/>
<path d="M51.0596 19.7649C50.9756 19.7649 50.8962 19.7836 50.8138 19.7898C49.6751 14.1462 44.6802 9.88245 38.7053 9.88245C31.8935 9.88245 26.3527 15.4233 26.3527 22.2351C26.3527 29.0469 31.8935 34.5878 38.7053 34.5878C44.1 34.5878 48.6858 31.1064 50.3658 26.2764C50.5898 26.3247 50.82 26.3527 51.058 26.3527C52.878 26.3527 54.3527 24.878 54.3527 23.058C54.3527 21.2396 52.878 19.7649 51.0596 19.7649V19.7649ZM38.7053 31.2947C33.7104 31.2947 29.6473 27.2316 29.6473 22.2351C29.6473 17.2387 33.712 13.1756 38.7053 13.1756C43.7002 13.1756 47.7649 17.2387 47.7649 22.2351C47.7649 27.2316 43.7002 31.2947 38.7053 31.2947Z" fill="#67757F"/>
<path d="M32.9389 44.4702C32.6915 44.4702 32.4395 44.4142 32.2031 44.296C29.3735 42.8804 26.6233 42.8804 23.7938 44.296C22.9787 44.702 21.9893 44.3738 21.5833 43.5587C21.1758 42.7451 21.5055 41.7558 22.3207 41.3482C26.0867 39.466 29.9071 39.466 33.6762 41.3482C34.4898 41.7558 34.8195 42.7451 34.4135 43.5587C34.1258 44.1373 33.544 44.4702 32.9389 44.4702V44.4702Z" fill="#65471B"/>
</svg>
