<svg width="56" height="56" viewBox="0 0 56 56" fill="none" xmlns="http://www.w3.org/2000/svg">
<path d="M36.7904 36.2398L19.7587 19.208L34.3591 7.04199L48.958 21.6409L36.7904 36.2398Z" fill="#BE1931"/>
<path d="M53.8222 21.6409C51.1358 24.3304 46.7786 24.3304 44.0922 21.6409L34.3591 11.9093C31.6695 9.22288 31.6695 4.86265 34.3591 2.17465C37.044 -0.511791 41.4026 -0.511791 44.0922 2.17465L53.8222 11.9093C56.5102 14.5958 56.5102 18.9544 53.8222 21.6409V21.6409Z" fill="#DD2E44"/>
<path d="M21.7778 27.7247C21.7778 27.7247 -0.922446 54.4896 0.292442 55.7091C1.50889 56.9271 28.2753 34.2222 28.2753 34.2222L21.7778 27.7247Z" fill="#99AAB5"/>
<path d="M39.2233 43.5415C36.5384 46.2311 32.1798 46.2311 29.4887 43.5415L12.4584 26.5082C9.77199 23.8202 9.77199 19.4647 12.4584 16.7767C15.1464 14.0871 19.5051 14.0871 22.1931 16.7767L39.2233 33.8084C41.9113 36.498 41.9113 40.852 39.2233 43.5415Z" fill="#DD2E44"/>
</svg>
