<svg width="53" height="57" viewBox="0 0 53 57" fill="none" xmlns="http://www.w3.org/2000/svg">
<path d="M48.5298 16.7647H4.41887C1.67446 16.7647 -0.549881 19.0162 -0.549881 21.7941C-0.549881 24.572 1.67446 26.8235 4.41887 26.8235C4.72031 26.8235 5.01015 26.785 5.29668 26.7347L5.27018 26.8235L6.32521 50.3008C6.48918 53.9857 9.60624 57 13.25 57H39.75C43.3937 57 46.5108 53.9857 46.6764 50.3008L47.7298 26.8235L47.705 26.7397C47.9749 26.785 48.2466 26.8235 48.5298 26.8235C51.2742 26.8235 53.4985 24.572 53.4985 21.7941C53.4985 19.0162 51.2725 16.7647 48.5298 16.7647Z" fill="#E1E8ED"/>
<path d="M44.1689 26.8235V55.3051C45.5982 54.0746 46.5605 52.2942 46.64 50.2992L47.7663 26.8235H44.1689ZM34.2314 26.8235H39.2001V57H34.2314V26.8235ZM24.2939 57V26.8235H29.2626V57H24.2939ZM14.3564 26.8235H19.3251V57H14.3564V26.8235ZM5.23375 26.8235L6.36 50.2992C6.44944 52.549 7.64525 54.5373 9.38763 55.7544V26.8235H5.23375Z" fill="#DA2F47"/>
<path opacity="0.6" d="M5.23375 26.8235L5.39441 30.1765H47.6039L47.7663 26.8235H5.23375Z" fill="#99AAB5"/>
<path d="M47.9137 16.8821C47.9849 16.5736 48.0312 16.2567 48.0312 15.9265C48.0312 14.7965 47.5841 13.7739 46.8652 13.0211C47.5642 12.5752 48.0312 11.794 48.0312 10.8971C48.0312 9.50727 46.9183 8.38235 45.5469 8.38235C45.2206 8.38235 44.9092 8.44941 44.6227 8.56676C44.3925 7.70674 43.73 7.03615 42.8803 6.80312C42.9963 6.51309 43.0625 6.19959 43.0625 5.86765C43.0625 4.47785 41.9495 3.35294 40.5781 3.35294C40.2618 3.35294 39.962 3.41832 39.6838 3.52729C39.3674 1.53062 37.6714 0 35.6094 0C33.3221 0 31.4688 1.87597 31.4688 4.19118C31.4688 4.50468 31.5085 4.80812 31.5731 5.10318C30.5131 5.29262 29.6022 5.88944 28.9844 6.72768C28.2291 5.70335 27.0333 5.02941 25.6719 5.02941C23.3846 5.02941 21.5312 6.90538 21.5312 9.22059L21.5329 9.24071C21.0294 8.85512 20.4447 8.5785 19.7988 8.45947C19.4444 6.50806 17.7633 5.02941 15.7344 5.02941C13.7005 5.02941 12.0161 6.51644 11.6683 8.47456C11.3718 8.42762 11.0753 8.38235 10.7656 8.38235C7.56409 8.38235 4.96875 11.0094 4.96875 14.25C4.96875 15.1637 5.19234 16.017 5.56003 16.7882C4.30128 16.9106 3.3125 17.9718 3.3125 19.2794C3.3125 20.6692 4.4255 21.7941 5.79688 21.7941H47.2031C48.5745 21.7941 49.6875 20.6692 49.6875 19.2794C49.6875 18.1428 48.9372 17.1922 47.9137 16.8821Z" fill="#FFD983"/>
<path d="M43.0625 13.4118C43.9772 13.4118 44.7188 12.6612 44.7188 11.7353C44.7188 10.8094 43.9772 10.0588 43.0625 10.0588C42.1478 10.0588 41.4062 10.8094 41.4062 11.7353C41.4062 12.6612 42.1478 13.4118 43.0625 13.4118Z" fill="#FFAC33"/>
<path d="M37.2656 10.0588C38.6377 10.0588 39.75 8.93296 39.75 7.54413C39.75 6.15529 38.6377 5.02942 37.2656 5.02942C35.8935 5.02942 34.7812 6.15529 34.7812 7.54413C34.7812 8.93296 35.8935 10.0588 37.2656 10.0588Z" fill="#FFAC33"/>
<path d="M16.5625 11.7353C17.4772 11.7353 18.2188 10.9847 18.2188 10.0589C18.2188 9.13297 17.4772 8.38239 16.5625 8.38239C15.6478 8.38239 14.9062 9.13297 14.9062 10.0589C14.9062 10.9847 15.6478 11.7353 16.5625 11.7353Z" fill="#FFAC33"/>
<path d="M48.0312 19.2794C48.0312 17.8913 46.9183 16.7647 45.5469 16.7647C44.4571 16.7647 43.5395 17.4806 43.2049 18.4697C43.1569 18.4663 43.1138 18.4412 43.0625 18.4412C42.1483 18.4412 41.4062 19.1923 41.4062 20.1177H47.8789C47.9716 19.8545 48.0312 19.5745 48.0312 19.2794ZM12.4219 18.4412C12.7498 18.4412 13.0595 18.5083 13.3461 18.6256C13.6309 17.556 14.5883 16.7647 15.7344 16.7647C17.1058 16.7647 18.2188 17.8896 18.2188 19.2794C18.2188 19.5745 18.1591 19.8545 18.0664 20.1177H24.9961C24.9034 19.8545 24.8438 19.5745 24.8438 19.2794C24.8438 17.8896 25.9568 16.7647 27.3281 16.7647C27.7207 16.7647 28.0883 16.8653 28.4179 17.0296C28.2556 16.696 28.1562 16.3238 28.1562 15.9265C28.1562 14.5367 29.2693 13.4118 30.6406 13.4118C32.012 13.4118 33.125 14.5367 33.125 15.9265C33.125 16.2584 33.0587 16.5719 32.9428 16.862C33.9995 17.1503 34.7812 18.1176 34.7812 19.2794C34.7812 19.5745 34.7216 19.8545 34.6289 20.1177H39.5446L38.6072 19.2794C39.3028 18.6642 39.75 17.7723 39.75 16.7647C39.75 14.9139 38.266 13.4118 36.4375 13.4118C35.8114 13.4118 35.2317 13.5979 34.7316 13.9047C34.7564 13.742 34.7812 13.5811 34.7812 13.4118C34.7812 11.561 33.2973 10.0588 31.4688 10.0588C30.1305 10.0588 28.9827 10.8669 28.461 12.0237C28.1198 11.846 27.7389 11.7353 27.3281 11.7353C25.9568 11.7353 24.8438 12.8619 24.8438 14.25C24.8438 14.582 24.91 14.8955 25.0259 15.1855C23.9693 15.4755 23.1875 16.4428 23.1875 17.603C23.1875 17.9349 23.2538 18.2484 23.3697 18.5384C22.9888 18.6424 22.6443 18.8352 22.3594 19.095C21.9188 18.6927 21.3424 18.4412 20.7031 18.4412C20.3106 18.4412 19.9429 18.5418 19.6117 18.7078C19.7756 18.3725 19.875 18.0003 19.875 17.603C19.875 16.2148 18.762 15.0883 17.3906 15.0883C17.0627 15.0883 16.753 15.1553 16.4664 15.2727C16.1816 14.2031 15.2242 13.4118 14.0781 13.4118C12.7067 13.4118 11.5938 14.5384 11.5938 15.9265C11.5938 16.2584 11.66 16.5719 11.7759 16.862C11.395 16.9659 11.0505 17.1587 10.7656 17.4185C10.3251 17.0162 9.74869 16.7647 9.10938 16.7647C7.738 16.7647 6.625 17.8913 6.625 19.2794C6.625 19.5745 6.68463 19.8545 6.77738 20.1177H10.0899C10.4327 19.1436 11.342 18.4412 12.4219 18.4412Z" fill="#FFAC33"/>
<path d="M3.3125 20.1177V21.7941C3.3125 22.7196 4.0545 23.4706 4.96875 23.4706H48.0312C48.9472 23.4706 49.6875 22.7196 49.6875 21.7941V20.1177H3.3125Z" fill="white"/>
</svg>
