<svg width="31" height="49" viewBox="0 0 31 49" fill="none" xmlns="http://www.w3.org/2000/svg">
<path d="M13.5555 37C11.1621 37 9.22221 35.0601 9.22221 32.6667V26.8889C9.22221 24.4954 11.1621 22.5556 13.5555 22.5556C14.4265 22.5469 22.2222 21.1111 22.2222 15.3333C22.2222 12.4444 19.3333 9.55555 15 9.55555C11.4741 9.55555 9.22221 12.4444 9.22221 13.8889C9.22221 16.2823 7.28232 18.2222 4.88888 18.2222C2.49543 18.2222 0.555542 16.2823 0.555542 13.8889C0.555542 6.84289 7.1711 0.888885 15 0.888885C26.5555 0.888885 30.8889 9.52955 30.8889 16.7778C30.8889 22.765 27.5999 27.341 21.6257 29.6622C20.3257 30.1692 19.0401 30.5101 17.8889 30.7412V32.6667C17.8889 35.0601 15.949 37 13.5555 37Z" fill="#BE1931"/>
<path d="M13.5556 48.5555C15.9488 48.5555 17.8889 46.6155 17.8889 44.2222C17.8889 41.829 15.9488 39.8889 13.5556 39.8889C11.1623 39.8889 9.22223 41.829 9.22223 44.2222C9.22223 46.6155 11.1623 48.5555 13.5556 48.5555Z" fill="#BE1931"/>
</svg>
