<svg width="56" height="56" viewBox="0 0 56 56" fill="none" xmlns="http://www.w3.org/2000/svg">
<path d="M41.6128 12.4554C43.7346 14.5787 46.8457 15.1122 49.4622 14.0607L55.0824 19.6778C56.2288 20.8289 56.2304 22.6925 55.0762 23.8467L23.8297 55.0745C22.6739 56.224 20.8119 56.2209 19.6593 55.0745L14.0499 49.4558C15.0952 46.8363 14.5632 43.7283 12.4446 41.6049C10.3181 39.4816 7.21169 38.9496 4.59369 39.9996L0.924132 36.3285C-0.226979 35.182 -0.23009 33.3138 0.924132 32.1596L32.1659 0.927126C33.3155 -0.223985 35.1775 -0.22554 36.3333 0.930238L40.0059 4.60291C38.9528 7.22091 39.4911 10.3289 41.6128 12.4554Z" fill="#EA596E"/>
<path d="M8.43105 28.8198L5.08816 32.1611C3.93861 33.3107 3.9355 35.1773 5.0835 36.33L5.92661 37.1715C8.87594 36.386 12.1473 37.1435 14.4542 39.4551C16.7689 41.7667 17.5202 45.038 16.7362 47.9811L19.6576 50.9102C20.8102 52.0598 22.6769 52.0598 23.8296 50.9071L27.2347 47.5051L8.43105 28.8198ZM29.4638 45.2775L45.2651 29.4855L26.4569 10.8002L10.6617 26.5922L29.4638 45.2775ZM32.5593 23.5107C36.0516 26.9764 36.8294 31.8422 34.3031 34.3824C31.7722 36.9258 26.8956 36.1729 23.4127 32.7102C19.9298 29.2444 19.1536 24.3755 21.6798 21.8353C24.2076 19.2998 29.0765 20.0464 32.5593 23.5107ZM50.9149 19.6778L47.9889 16.7518C45.0411 17.5342 41.7698 16.7844 39.4598 14.4682C37.1451 12.1598 36.386 8.88221 37.1731 5.93754L36.3316 5.08821C35.1805 3.94488 33.3138 3.94488 32.1658 5.09288L28.6876 8.5711L47.4974 27.2549L50.9133 23.8404C52.0645 22.694 52.0645 20.8289 50.9149 19.6778Z" fill="#BE1931"/>
</svg>
